<?xml version="1.0" encoding="UTF-8"?>
<!DOCTYPE svg PUBLIC "-//W3C//DTD SVG 1.1//EN" "http://www.w3.org/Graphics/SVG/1.1/DTD/svg11.dtd">
<!-- Creator: CorelDRAW 2019 (64-Bit) -->
<svg xmlns="http://www.w3.org/2000/svg" xml:space="preserve" width="256px" height="56px" version="1.1" style="shape-rendering:geometricPrecision; text-rendering:geometricPrecision; image-rendering:optimizeQuality; fill-rule:evenodd; clip-rule:evenodd"
viewBox="0 0 197.75 43.29"
 xmlns:xlink="http://www.w3.org/1999/xlink"
 xmlns:xodm="http://www.corel.com/coreldraw/odm/2003">
 <defs>
  <style type="text/css">
   <![CDATA[
    .fil2 {fill:#0072B5;fill-rule:nonzero}
    .fil1 {fill:#00B0D8;fill-rule:nonzero}
    .fil0 {fill:#02035E;fill-rule:nonzero}
    .fil4 {fill:#64DAEE;fill-rule:nonzero}
    .fil3 {fill:#9EEAF7;fill-rule:nonzero}
   ]]>
  </style>
 </defs>
 <g id="Layer_x0020_1">
  <metadata id="CorelCorpID_0Corel-Layer"/>
  <path class="fil0" d="M58.7 27.07l4.38 -11.46 3 0 4.31 11.46 -2.83 0 -0.98 -2.76 -4.16 0 -0.99 2.76 -2.73 0zm4.52 -5.01l2.58 0 -1.28 -3.67 -1.3 3.67zm13.62 5.01l0 -11.46 2.62 0 0 8.98 5.62 0 0 2.48 -8.24 0zm15.38 0l0 -11.46 2.62 0 0 8.98 5.62 0 0 2.48 -8.24 0zm16.12 0l0 -8.97 -3.49 0 0 -2.49 9.6 0 0 2.49 -3.49 0 0 8.97 -2.62 0zm17.65 0.19c-0.8,0 -1.55,-0.15 -2.24,-0.45 -0.69,-0.31 -1.29,-0.72 -1.81,-1.27 -0.52,-0.54 -0.92,-1.16 -1.21,-1.88 -0.29,-0.72 -0.44,-1.49 -0.44,-2.32 0,-0.83 0.15,-1.6 0.44,-2.31 0.29,-0.72 0.69,-1.35 1.21,-1.89 0.52,-0.54 1.12,-0.95 1.81,-1.26 0.69,-0.3 1.44,-0.45 2.24,-0.45 0.81,0 1.56,0.15 2.25,0.45 0.68,0.31 1.29,0.72 1.81,1.26 0.52,0.54 0.92,1.17 1.21,1.89 0.29,0.71 0.43,1.48 0.43,2.31 0,0.83 -0.14,1.6 -0.43,2.32 -0.29,0.72 -0.69,1.34 -1.21,1.88 -0.52,0.55 -1.13,0.96 -1.81,1.27 -0.69,0.3 -1.44,0.45 -2.25,0.45zm0 -2.59c0.43,0 0.83,-0.09 1.19,-0.26 0.37,-0.17 0.69,-0.4 0.96,-0.69 0.27,-0.29 0.48,-0.65 0.63,-1.06 0.15,-0.41 0.23,-0.85 0.23,-1.32 0,-0.48 -0.08,-0.92 -0.23,-1.33 -0.15,-0.4 -0.36,-0.75 -0.63,-1.04 -0.27,-0.3 -0.59,-0.53 -0.96,-0.7 -0.36,-0.17 -0.76,-0.25 -1.19,-0.25 -0.42,0 -0.82,0.08 -1.18,0.25 -0.37,0.17 -0.69,0.4 -0.95,0.7 -0.28,0.29 -0.49,0.64 -0.64,1.04 -0.15,0.41 -0.23,0.85 -0.23,1.32 0,0.48 0.08,0.92 0.23,1.33 0.15,0.41 0.36,0.77 0.64,1.06 0.26,0.29 0.58,0.52 0.95,0.69 0.36,0.17 0.76,0.26 1.18,0.26zm16.7 2.57c-0.87,0 -1.72,-0.17 -2.56,-0.51 -0.85,-0.34 -1.6,-0.81 -2.26,-1.41l1.46 -2.04c0.65,0.56 1.25,0.97 1.8,1.21 0.55,0.25 1.13,0.38 1.76,0.38 0.4,0 0.75,-0.05 1.03,-0.14 0.28,-0.09 0.5,-0.21 0.65,-0.38 0.16,-0.17 0.23,-0.37 0.23,-0.6 0,-0.31 -0.11,-0.56 -0.33,-0.74 -0.22,-0.17 -0.6,-0.31 -1.14,-0.41l-2.35 -0.44c-0.86,-0.16 -1.53,-0.52 -2,-1.06 -0.47,-0.55 -0.7,-1.24 -0.7,-2.08 0,-0.75 0.18,-1.39 0.53,-1.92 0.35,-0.53 0.85,-0.94 1.51,-1.23 0.65,-0.28 1.43,-0.42 2.34,-0.42 0.79,0 1.59,0.14 2.39,0.43 0.8,0.29 1.49,0.69 2.09,1.21l-1.39 2.08c-1.1,-0.91 -2.19,-1.36 -3.28,-1.36 -0.35,0 -0.66,0.04 -0.92,0.12 -0.26,0.08 -0.46,0.2 -0.59,0.34 -0.14,0.15 -0.21,0.32 -0.21,0.53 0,0.29 0.1,0.5 0.3,0.66 0.19,0.15 0.52,0.27 0.97,0.36l2.2 0.39c1.03,0.18 1.81,0.54 2.35,1.1 0.53,0.56 0.79,1.28 0.79,2.16 0,0.78 -0.18,1.45 -0.56,2.01 -0.37,0.56 -0.91,1 -1.61,1.3 -0.71,0.3 -1.54,0.46 -2.5,0.46zm16.9 0c-0.81,0 -1.57,-0.15 -2.26,-0.45 -0.7,-0.3 -1.31,-0.72 -1.82,-1.26 -0.52,-0.53 -0.93,-1.15 -1.22,-1.87 -0.29,-0.72 -0.43,-1.49 -0.43,-2.32 0,-0.84 0.14,-1.61 0.43,-2.33 0.29,-0.72 0.7,-1.34 1.23,-1.88 0.52,-0.53 1.13,-0.94 1.82,-1.25 0.7,-0.3 1.45,-0.45 2.25,-0.45 0.59,0 1.17,0.1 1.74,0.28 0.57,0.19 1.09,0.45 1.58,0.78 0.48,0.33 0.88,0.73 1.21,1.19l-1.77 1.86c-0.38,-0.51 -0.79,-0.89 -1.26,-1.15 -0.46,-0.25 -0.96,-0.37 -1.5,-0.37 -0.43,0 -0.83,0.08 -1.2,0.25 -0.37,0.17 -0.69,0.4 -0.96,0.7 -0.28,0.29 -0.49,0.64 -0.64,1.04 -0.15,0.41 -0.23,0.85 -0.23,1.33 0,0.47 0.08,0.91 0.24,1.3 0.15,0.4 0.37,0.75 0.65,1.05 0.28,0.3 0.61,0.53 0.99,0.7 0.38,0.16 0.8,0.24 1.24,0.24 0.52,0 1,-0.12 1.44,-0.36 0.44,-0.24 0.84,-0.59 1.2,-1.06l1.72 1.82c-0.33,0.45 -0.73,0.84 -1.21,1.17 -0.48,0.33 -0.99,0.59 -1.55,0.77 -0.56,0.18 -1.12,0.27 -1.69,0.27zm10.24 -0.17l4.38 -11.46 3 0 4.31 11.46 -2.83 0 -0.98 -2.76 -4.16 0 -0.99 2.76 -2.73 0zm4.52 -5.01l2.58 0 -1.28 -3.67 -1.3 3.67zm13.62 5.01l0 -11.46 2.47 0 4.84 6.65 0 -6.65 2.47 0 0 11.46 -2.32 0 -4.99 -6.91 0 6.91 -2.47 0z"/>
  <polygon class="fil0" points="12.36,27.07 0,32.5 24.56,43.29 49.13,32.5 36.77,27.07 24.56,32.43 "/>
  <polygon class="fil1" points="36.77,16.22 24.56,21.58 12.36,16.22 0,21.65 12.36,27.07 24.56,21.71 36.77,27.07 49.13,21.65 "/>
  <polygon class="fil2" points="12.36,27.07 24.56,32.43 36.77,27.07 24.56,21.71 "/>
  <polygon class="fil3" points="36.77,16.22 49.13,10.79 24.56,0 0,10.79 12.36,16.22 24.56,10.86 "/>
  <polygon class="fil4" points="36.77,16.22 24.56,10.86 12.36,16.22 24.56,21.58 "/>
 </g>
</svg>
