<?xml version="1.0" encoding="UTF-8"?>
<!DOCTYPE svg PUBLIC "-//W3C//DTD SVG 1.1//EN" "http://www.w3.org/Graphics/SVG/1.1/DTD/svg11.dtd">
<!-- Creator: CorelDRAW 2019 (64-Bit) -->
<svg xmlns="http://www.w3.org/2000/svg" xml:space="preserve" width="653.258mm" height="143.012mm" version="1.1" style="shape-rendering:geometricPrecision; text-rendering:geometricPrecision; image-rendering:optimizeQuality; fill-rule:evenodd; clip-rule:evenodd"
viewBox="0 0 79714.93 17451.3"
 xmlns:xlink="http://www.w3.org/1999/xlink"
 xmlns:xodm="http://www.corel.com/coreldraw/odm/2003">
 <defs>
  <style type="text/css">
   <![CDATA[
    .fil2 {fill:#0072B5;fill-rule:nonzero}
    .fil1 {fill:#00B0D8;fill-rule:nonzero}
    .fil0 {fill:#02035E;fill-rule:nonzero}
    .fil4 {fill:#64DAEE;fill-rule:nonzero}
    .fil3 {fill:#9EEAF7;fill-rule:nonzero}
   ]]>
  </style>
 </defs>
 <g id="Layer_x0020_1">
  <metadata id="CorelCorpID_0Corel-Layer"/>
  <path class="fil0" d="M23663.22 10913.98l1763.88 -4619.64 1210.15 0 1737.76 4619.64 -1142.24 0 -393.52 -1115.15 -1676.82 0 -398.75 1115.15 -1100.46 0zm1819.59 -2020.74l1043.01 0 -515.4 -1478.13 -527.61 1478.13zm5492.24 2020.74l0 -4619.64 1055.2 0 0 3616.75 2267.1 0 0 1002.89 -3322.3 0zm6199.18 0l0 -4619.64 1055.19 0 0 3616.75 2267.1 0 0 1002.89 -3322.29 0zm6498.86 0l0 -3616.75 -1405.19 0 0 -1002.89 3869.04 0 0 1002.89 -1406.92 0 0 3616.75 -1056.93 0zm7116.61 72.97c-323.87,0 -625.11,-59.88 -903.71,-181.49 -278.6,-121.62 -522.37,-290.02 -729.59,-508.92 -208.95,-217.05 -372.62,-469.64 -489.28,-759.65 -116.67,-288.14 -175.88,-598.74 -175.88,-933.66 0,-334.91 59.21,-645.51 175.88,-933.65 116.66,-288.14 280.33,-540.74 489.28,-759.65 207.21,-217.04 450.99,-385.43 729.59,-507.06 278.6,-121.61 579.83,-181.49 903.71,-181.49 323.87,0 625.11,59.88 903.71,181.49 276.85,121.62 520.64,290.02 729.57,507.06 208.96,218.92 372.63,471.51 489.3,759.65 116.66,288.14 174.12,598.74 174.12,933.65 0,334.93 -57.46,645.52 -174.12,933.66 -116.67,290.01 -280.34,542.6 -489.3,759.65 -208.93,218.9 -452.72,387.3 -729.57,508.92 -278.6,121.61 -579.83,181.49 -903.71,181.49zm0 -1044.05c172.39,0 330.84,-33.68 478.85,-102.91 148.01,-67.36 275.11,-160.92 384.81,-278.79 107.96,-117.88 193.28,-260.08 254.22,-426.59 60.95,-164.66 92.29,-342.41 92.29,-531.39 0,-192.72 -31.34,-372.34 -92.29,-535.12 -60.94,-162.77 -146.26,-303.1 -254.22,-422.85 -109.7,-117.88 -236.81,-211.44 -384.81,-280.66 -148.01,-67.36 -306.46,-101.04 -478.85,-101.04 -172.39,0 -330.84,33.68 -478.85,101.04 -147.99,69.23 -275.11,162.78 -383.07,280.66 -109.7,119.74 -195.02,260.08 -255.96,422.85 -60.94,162.78 -92.29,340.54 -92.29,529.51 0,192.73 31.35,372.34 92.29,537 60.94,166.52 146.26,308.72 255.96,426.59 107.96,117.88 235.07,211.44 383.07,278.79 148.01,69.23 306.46,102.91 478.85,102.91zm6728.53 1036.57c-348.25,0 -693.01,-67.36 -1032.57,-203.96 -339.54,-136.58 -642.51,-325.56 -908.93,-566.92l590.28 -825.13c261.19,228.26 503.21,391.05 724.35,490.22 221.15,99.16 456.21,149.68 706.95,149.68 163.67,0 302.98,-18.71 417.91,-54.27 113.18,-35.55 201.98,-86.07 262.93,-155.29 60.93,-67.36 92.28,-147.81 92.28,-239.49 0,-127.24 -45.27,-226.41 -134.07,-297.5 -90.54,-69.24 -243.79,-125.36 -461.43,-164.65l-945.49 -177.76c-348.26,-65.49 -616.41,-209.56 -804.46,-430.34 -189.8,-218.92 -283.81,-499.58 -283.81,-838.24 0,-299.37 71.37,-557.58 212.42,-772.75 141.04,-215.17 344.76,-379.82 609.43,-493.95 262.93,-114.14 578.09,-172.14 942.02,-172.14 318.64,0 640.77,58 964.65,174.01 322.13,117.88 602.47,278.78 841.01,486.47l-558.93 838.24c-442.27,-364.86 -882.8,-548.22 -1321.6,-548.22 -142.78,0 -266.41,16.84 -370.89,48.64 -104.47,33.68 -184.58,80.45 -238.55,138.46 -55.72,59.87 -83.58,130.97 -83.58,215.17 0,114.13 40.05,202.08 120.14,263.82 78.37,61.75 208.96,110.39 390.05,145.94l889.77 159.04c412.68,69.23 727.85,217.04 943.75,441.57 214.18,224.53 322.13,514.54 322.13,871.92 0,312.46 -74.86,581.9 -226.36,808.29 -151.48,226.4 -369.13,402.27 -651.22,523.9 -283.82,123.49 -619.88,185.24 -1008.17,185.24zm6813.84 0c-327.36,0 -632.07,-59.88 -912.42,-181.5 -280.34,-121.61 -525.85,-290.01 -733.06,-505.18 -208.95,-215.17 -372.62,-465.9 -489.28,-755.91 -116.67,-288.14 -175.88,-598.74 -175.88,-933.66 0,-338.66 59.21,-651.12 175.88,-941.13 116.66,-288.15 282.08,-540.74 492.77,-755.92 210.69,-215.17 456.21,-381.69 736.54,-503.31 280.34,-121.61 581.58,-181.49 905.45,-181.49 236.81,0 470.13,37.43 699.98,112.26 229.84,74.84 442.26,179.62 637.28,312.46 193.28,134.72 356.95,293.76 487.55,478.99l-713.91 752.17c-151.5,-207.69 -318.64,-361.11 -504.96,-462.15 -186.31,-101.04 -388.3,-151.56 -605.95,-151.56 -172.39,0 -332.58,33.68 -482.32,101.04 -149.75,69.23 -280.34,162.78 -390.05,280.66 -109.69,119.74 -196.76,260.08 -257.71,422.85 -60.93,162.78 -92.28,342.41 -92.28,535.12 0,188.98 31.35,364.86 95.77,523.9 62.69,160.92 149.75,301.25 262.93,422.86 113.18,121.62 245.52,215.17 400.48,280.66 153.24,65.49 320.38,99.17 499.75,99.17 208.93,0 402.21,-48.65 581.57,-145.94 177.6,-95.42 337.81,-239.5 480.58,-428.47l694.76 733.45c-130.59,181.49 -292.52,338.66 -485.8,471.5 -193.28,134.72 -402.24,237.62 -626.85,310.59 -224.61,72.97 -452.73,108.53 -680.82,108.53zm4128.85 -65.49l1763.87 -4619.64 1210.16 0 1737.76 4619.64 -1142.26 0 -393.51 -1115.15 -1676.83 0 -398.75 1115.15 -1100.45 0zm1819.59 -2020.74l1043.01 0 -515.42 -1478.13 -527.59 1478.13zm5492.24 2020.74l0 -4619.64 994.24 0 1953.68 2679.35 0 -2679.35 994.25 0 0 4619.64 -933.31 0 -2014.63 -2786.01 0 2786.01 -994.24 0z"/>
  <polygon class="fil0" points="4982.41,10913.94 -0,13102.22 9902.31,17451.3 19804.64,13102.22 14822.26,10913.94 9902.31,13074.75 "/>
  <polygon class="fil1" points="14822.25,6537.4 9902.34,8698.21 4982.39,6537.4 0.01,8725.68 4982.39,10913.95 9902.34,8753.1 14822.25,10913.95 19804.61,8725.68 "/>
  <polygon class="fil2" points="4982.41,10913.94 9902.31,13074.75 14822.26,10913.94 9902.31,8753.09 "/>
  <polygon class="fil3" points="14822.25,6537.4 19804.61,4349.13 9902.34,0 0.01,4349.13 4982.39,6537.4 9902.34,4376.55 "/>
  <polygon class="fil4" points="14822.25,6537.4 9902.34,4376.55 4982.39,6537.4 9902.34,8698.21 "/>
 </g>
</svg>
